<svg width="24" height="24" viewBox="0 0 24 24" fill="none" xmlns="http://www.w3.org/2000/svg">
<path d="M6.25071 8.57756C6.89619 7.45957 7.83826 6.54185 8.97276 5.92586C10.1073 5.30987 11.39 5.01962 12.6792 5.08718C13.9684 5.15474 15.2138 5.57749 16.2777 6.3087C17.3416 7.0399 18.1826 8.05106 18.7076 9.2304" stroke="white" stroke-width="1.5" stroke-linecap="round"/>
<path d="M4.6408 6.40354L5.25092 9.04631C5.37515 9.58444 5.9121 9.91997 6.45023 9.79574L9.09301 9.18563" stroke="white" stroke-width="1.5" stroke-linecap="round"/>
<path d="M18.375 15.5775C17.7295 16.6955 16.7875 17.6132 15.653 18.2292C14.5185 18.8452 13.2357 19.1354 11.9465 19.0679C10.6573 19.0003 9.41196 18.5775 8.34806 17.8463C7.28415 17.1151 6.44317 16.104 5.9181 14.9246" stroke="white" stroke-width="1.5" stroke-linecap="round"/>
<path d="M19.9852 17.7515L19.3751 15.1087C19.2508 14.5706 18.7139 14.2351 18.1757 14.3593L15.533 14.9694" stroke="white" stroke-width="1.5" stroke-linecap="round"/>
</svg>
