<svg width="60" height="60" viewBox="0 0 60 60" fill="none" xmlns="http://www.w3.org/2000/svg">
<path d="M39.8081 29.0797C42.3932 29.0797 44.4889 26.984 44.4889 24.3989C44.4889 21.8137 42.3932 19.718 39.8081 19.718M44.9346 39.7587L45.3933 39.8242C46.7689 40.0207 47.9996 38.9534 47.9996 37.5638V36.0244C47.9996 35.0176 47.3667 34.1195 46.4185 33.7808C45.4727 33.4431 44.5075 33.18 43.5315 32.9917M21.191 29.0797C18.6059 29.0797 16.5102 26.984 16.5102 24.3989C16.5102 21.8137 18.6059 19.718 21.191 19.718M16.0645 39.7587L15.6058 39.8242C14.2302 40.0207 12.9995 38.9534 12.9995 37.5638V36.0244C12.9995 35.0176 13.6324 34.1195 14.5806 33.7808C15.5264 33.4431 16.4916 33.18 17.4676 32.9917M24.9146 22.9574C24.9146 26.2477 27.5819 28.9149 30.8721 28.9149C34.1624 28.9149 36.8296 26.2477 36.8296 22.9574C36.8296 19.6672 34.1624 17 30.8721 17C27.5819 17 24.9146 19.6672 24.9146 22.9574ZM34.6903 42.1201L39.0147 42.7379C40.2195 42.91 41.2975 41.9751 41.2975 40.758V37.754C41.2975 36.4726 40.492 35.3295 39.2852 34.8985C33.8446 32.9555 27.8992 32.9555 22.4586 34.8985C21.2519 35.3295 20.4463 36.4726 20.4463 37.754V40.758C20.4463 41.9751 21.5243 42.91 22.7292 42.7379L27.0536 42.1201C29.5863 41.7583 32.1576 41.7583 34.6903 42.1201Z" stroke="#1F1F1F" stroke-width="2" stroke-linecap="round"/>
</svg>
