<svg width="37" height="28" viewBox="0 0 37 28" fill="none" xmlns="http://www.w3.org/2000/svg">
<ellipse cx="5.95748" cy="5.95744" rx="5.95748" ry="5.95744" transform="matrix(-1 0 0 1 24.8301 1)" stroke="#1F1F1F" stroke-width="2"/>
<path d="M8.44678 21.7537C8.44678 20.4723 9.25232 19.3293 10.4591 18.8983V18.8983C15.8996 16.9552 21.8451 16.9552 27.2857 18.8983V18.8983C28.4924 19.3293 29.298 20.4723 29.298 21.7537V24.7577C29.298 25.9748 28.22 26.9098 27.0151 26.7376L22.6907 26.1199C20.158 25.7581 17.5867 25.7581 15.054 26.1199L10.7296 26.7376C9.52475 26.9098 8.44678 25.9748 8.44678 24.7577V21.7537Z" stroke="#1F1F1F" stroke-width="2"/>
<path d="M27.8086 13.0795C30.3938 13.0795 32.4895 10.9838 32.4895 8.39862C32.4895 5.81346 30.3938 3.71777 27.8086 3.71777" stroke="#1F1F1F" stroke-width="2" stroke-linecap="round"/>
<path d="M32.9351 23.7587L33.3938 23.8242C34.7694 24.0207 36.0001 22.9534 36.0001 21.5638V20.0244C36.0001 19.0176 35.3672 18.1195 34.419 17.7808C33.4732 17.4431 32.508 17.18 31.532 16.9917" stroke="#1F1F1F" stroke-width="2" stroke-linecap="round"/>
<path d="M9.19138 13.0795C6.6062 13.0795 4.5105 10.9838 4.5105 8.39862C4.5105 5.81346 6.6062 3.71777 9.19138 3.71777" stroke="#1F1F1F" stroke-width="2" stroke-linecap="round"/>
<path d="M4.06487 23.7587L3.60623 23.8242C2.23063 24.0207 0.999908 22.9534 0.999908 21.5638V20.0244C0.999908 19.0176 1.63283 18.1195 2.58098 17.7808C3.52677 17.4431 4.49198 17.18 5.46802 16.9917" stroke="#1F1F1F" stroke-width="2" stroke-linecap="round"/>
</svg>
