<svg width="16" height="16" viewBox="0 0 16 16" fill="none" xmlns="http://www.w3.org/2000/svg">
<path d="M11.8995 4.99992L2 14.8994" stroke="#CACACA" stroke-linecap="round" stroke-linejoin="round"/>
<path d="M9.84352 8.73793C10.7059 7.92357 12.0635 7.97468 12.906 8.81703L14.3367 10.2487C15.1938 11.1059 15.2341 12.4976 14.3748 13.3571L13.4509 14.2809C12.5121 15.2197 10.9756 15.1436 9.48122 14.5954C8.37831 14.1906 7.18421 13.4927 6.02321 12.5582L9.84352 8.73793ZM2.64235 1.62465C3.50179 0.765398 4.89353 0.805719 5.75075 1.66273L7.18239 3.0934C8.0396 3.95066 8.07898 5.34329 7.2195 6.20277L7.02126 6.40101C6.87191 6.55053 6.85577 6.79333 6.99782 6.96547C7.2972 7.32824 7.61892 7.68714 7.96559 8.03383C8.14066 8.20889 8.31844 8.37809 8.4988 8.54066L5.19411 11.8454C5.01538 11.6811 4.83795 11.5116 4.66286 11.3366C3.10577 9.77945 1.96951 8.05922 1.40407 6.5182C0.855763 5.0238 0.779687 3.48737 1.71852 2.54848L2.64235 1.62465Z" fill="#CACACA"/>
</svg>
