<svg width="24" height="24" viewBox="0 0 24 24" fill="none" xmlns="http://www.w3.org/2000/svg">
<path d="M17 7L4 20" stroke="#CACACA" stroke-linecap="round" stroke-linejoin="round"/>
<path d="M14.3761 13.0605C15.4875 11.949 17.288 12.0008 18.3966 13.1093L20.2472 14.9599C21.3557 16.0685 21.4075 17.8689 20.296 18.9804L19.1007 20.1747C17.8865 21.3886 15.9003 21.291 13.9679 20.582C12.5352 20.0563 10.9842 19.1474 9.47665 17.9306L14.0069 13.4013C14.0473 13.3782 14.0861 13.3514 14.1202 13.3173L14.3761 13.0605ZM5.12411 3.80854C6.23559 2.69706 8.03603 2.74878 9.14462 3.85736L10.9942 5.70795C12.1028 6.81654 12.1545 8.61601 11.0431 9.72748L10.7872 9.98432C10.5941 10.1776 10.5724 10.4912 10.7559 10.7138C11.069 11.0932 11.4023 11.4686 11.755 11.8359L7.48348 16.1074C5.60049 14.1631 4.22257 12.0435 3.52255 10.1357C2.81365 8.20337 2.715 6.21697 3.9288 5.00287L5.12411 3.80854Z" fill="#CACACA"/>
</svg>
