<svg width="100" height="93" viewBox="0 0 100 93" fill="none" xmlns="http://www.w3.org/2000/svg">
<path d="M29.6145 32.9018C31.8699 31.2318 35.0522 31.7061 36.7223 33.9613C38.3925 36.2166 37.9181 39.3986 35.6627 41.0686L10.1318 59.9736C7.87648 61.6437 4.69422 61.1693 3.02406 58.9141C1.3539 56.6589 1.82831 53.4769 4.08367 51.8068L29.6145 32.9018Z" fill="#FFF5EB"/>
<path d="M95.1522 8.41748C97.8293 8.41748 99.9995 10.5875 99.9995 13.2644C99.9995 15.9413 97.8293 18.1113 95.1522 18.1113L57.3946 18.1113C54.7176 18.1113 52.5474 15.9413 52.5474 13.2644C52.5474 10.5875 54.7176 8.41748 57.3946 8.41748L95.1522 8.41748Z" fill="#FFF5EB"/>
<path d="M71.1714 5.10205C71.1714 2.28426 73.4557 0 76.2734 0C79.0912 0 81.3755 2.28426 81.3755 5.10205V10.4592H71.1714V5.10205Z" fill="#FFF5EB"/>
<path d="M76.2827 7.72217L83.4688 14.9078L65.4499 32.9255C63.4655 34.9097 60.2482 34.9097 58.2638 32.9255L-nan -nanL58.2638 32.9255C56.2794 30.9412 56.2794 27.7241 58.2638 25.7398L76.2827 7.72217Z" fill="#FFF5EB"/>
<path d="M76.2881 7.72217L69.102 14.9078L87.1209 32.9255C89.1053 34.9097 92.3226 34.9097 94.307 32.9255C96.2914 30.9412 96.2914 27.7241 94.307 25.7398L76.2881 7.72217Z" fill="#FFF5EB"/>
<path d="M94.8971 53.0615C97.7151 53.0615 99.9995 50.7773 99.9995 47.9595C99.9995 45.1417 97.7151 42.8575 94.8971 42.8575L47.445 42.8575C44.627 42.8575 42.3426 45.1417 42.3426 47.9595C42.3426 50.7773 44.627 53.0615 47.445 53.0615L94.8971 53.0615Z" fill="#FFF5EB"/>
<path d="M44.0135 51.7271C46.2688 53.3971 49.4511 52.9228 51.1213 50.6676C52.7914 48.4123 52.317 45.2303 50.0616 43.5603L35.9412 33.1044C33.6858 31.4344 30.5036 31.9087 28.8334 34.1639C27.1633 36.4192 27.6377 39.6012 29.893 41.2712L44.0135 51.7271Z" fill="#FFF5EB"/>
<path d="M38.5229 4.97449C38.5229 2.22716 40.7501 0 43.4974 0C46.2448 0 48.4719 2.22716 48.4719 4.97449L48.4719 28.4439C48.4719 31.1912 46.2448 33.4184 43.4974 33.4184C40.7501 33.4184 38.5229 31.1912 38.5229 28.4439L38.5229 4.97449Z" fill="#FFF5EB"/>
<path d="M18.4963 0C27.7014 0 35.1637 7.46182 35.1637 16.6663C35.1637 25.8707 27.7014 33.3324 18.4963 33.3324C9.29123 33.3324 1.82916 25.8707 1.8291 16.6663C1.8291 7.46183 9.29119 1.11342e-05 18.4963 0ZM18.4963 10.1625C14.9041 10.1625 11.992 13.0743 11.992 16.6663C11.992 20.2582 14.9041 23.1701 18.4963 23.1702C22.0885 23.1702 25.0005 20.2583 25.0006 16.6663C25.0006 13.0743 22.0885 10.1625 18.4963 10.1625Z" fill="#FFF5EB"/>
<path d="M46.0491 67.3469C47.9512 67.3469 49.4932 68.8888 49.4932 70.7908C49.4932 72.6928 47.9512 74.2347 46.0491 74.2347L35.3341 74.2347C33.4319 74.2347 31.8899 72.6928 31.8899 70.7908C31.8899 68.8888 33.4319 67.3469 35.3341 67.3469L46.0491 67.3469Z" fill="#FFF5EB"/>
<path d="M49.4932 86.7337C49.4932 88.5653 48.0084 90.05 46.1768 90.05C44.3453 90.05 42.8605 88.5653 42.8605 86.7337L42.8605 70.6623C42.8605 68.8307 44.3453 67.3459 46.1768 67.3459C48.0084 67.3459 49.4932 68.8307 49.4932 70.6623L49.4932 86.7337Z" fill="#FFF5EB"/>
<path d="M53.9577 77.0408C55.8599 77.0408 57.4019 78.5826 57.4019 80.4846C57.4019 82.3866 55.8599 83.9285 53.9577 83.9285L35.3341 83.9285C33.4319 83.9285 31.89 82.3866 31.89 80.4846C31.89 78.5826 33.4319 77.0408 35.3341 77.0408L53.9577 77.0408Z" fill="#FFF5EB"/>
<path d="M59.4429 89.286C59.4429 91.1175 57.9581 92.6023 56.1265 92.6023C54.295 92.6023 52.8102 91.1175 52.8102 89.286L52.8102 66.5819C52.8102 64.7503 54.295 63.2655 56.1265 63.2655C57.9581 63.2655 59.4429 64.7503 59.4429 66.5819L59.4429 89.286Z" fill="#FFF5EB"/>
<path d="M68.3652 89.1584C68.3652 91.0604 66.8234 92.6023 64.9214 92.6023C63.0193 92.6023 61.4775 91.0604 61.4775 89.1584L61.4775 66.7094C61.4775 64.8074 63.0194 63.2655 64.9214 63.2655C66.8234 63.2655 68.3652 64.8074 68.3652 66.7094L68.3652 89.1584Z" fill="#FFF5EB"/>
<path d="M80.8017 66.3984C86.7075 66.3984 91.495 71.1857 91.495 77.091C91.495 82.9964 86.7075 87.7839 80.8017 87.7839C74.896 87.7839 70.1084 82.9964 70.1084 77.091C70.1085 71.1857 74.896 66.3985 80.8017 66.3984ZM80.8017 72.9182C78.497 72.9182 76.6286 74.7865 76.6286 77.091C76.6286 79.3956 78.497 81.2638 80.8017 81.2638C83.1064 81.2638 84.9748 79.3956 84.9748 77.091C84.9748 74.7865 83.1064 72.9182 80.8017 72.9182Z" fill="#FFF5EB"/>
<path d="M99.9995 89.0309C99.9995 91.0033 98.4005 92.6023 96.4281 92.6023C94.4556 92.6023 92.8566 91.0033 92.8566 89.0309L92.8566 66.837C92.8566 64.8645 94.4556 63.2655 96.4281 63.2655C98.4005 63.2655 99.9995 64.8645 99.9995 66.837L99.9995 89.0309Z" fill="#FFF5EB"/>
<path d="M13.0117 79.0818H19.6444V89.0308H13.0117L13.0117 79.0818Z" fill="#FFF5EB"/>
<path d="M16.4555 62.8992C22.3613 62.8992 27.1489 67.6864 27.1489 73.5918C27.1488 79.4971 22.3613 84.2844 16.4555 84.2844C10.5497 84.2844 5.76222 79.4971 5.76221 73.5918C5.76221 67.6864 10.5497 62.8992 16.4555 62.8992ZM16.4555 69.4187C14.1508 69.4187 12.2824 71.287 12.2824 73.5915C12.2824 75.8961 14.1508 77.7643 16.4555 77.7643C18.7602 77.7643 20.6286 75.896 20.6286 73.5915C20.6286 71.287 18.7602 69.4187 16.4555 69.4187Z" fill="#FFF5EB"/>
<path d="M27.8082 85.4583C29.7808 85.4583 31.3799 87.0572 31.3799 89.0297C31.3799 91.0021 29.7808 92.6011 27.8082 92.6011L5.35774 92.6011C3.38516 92.6011 1.78607 91.0021 1.78607 89.0297C1.78607 87.0572 3.38516 85.4583 5.35774 85.4583L27.8082 85.4583Z" fill="#FFF5EB"/>
</svg>
