<svg width="60" height="60" viewBox="0 0 60 60" fill="none" xmlns="http://www.w3.org/2000/svg">
<path d="M12.3572 35.3571V30.3659C12.3572 27.9412 14.276 25.9756 16.6429 25.9756M12.3572 35.3571C12.3572 37.7818 14.276 39.7474 16.6429 39.7474H42.3572C44.7241 39.7474 46.6429 37.7818 46.6429 35.3571M12.3572 35.3571V42.0732C12.3572 43.6896 13.6364 45 15.2143 45H18.0715C19.6494 45 20.9286 43.6896 20.9286 42.0732V39.7474M46.6429 35.3571V30.3659C46.6429 27.9412 44.7241 25.9756 42.3572 25.9756H16.6429M46.6429 35.3571V42.0732C46.6429 43.6896 45.3637 45 43.7857 45H40.9286C39.3507 45 38.0715 43.6896 38.0715 42.0732V39.7474M16.6429 25.9756L18.9344 17.1727C19.268 15.8915 20.4007 15 21.6951 15H37.4407C38.6705 15 39.7623 15.8061 40.1512 17.0013L43.0715 25.9756M17.3572 32.561H22.3572M36.6429 32.561H41.6429" stroke="#1F1F1F" stroke-width="2" stroke-linecap="round" stroke-linejoin="round"/>
</svg>
