<svg width="16" height="16" viewBox="0 0 16 16" fill="none" xmlns="http://www.w3.org/2000/svg">
<path d="M12.708 13.4789C11.4052 14.7817 8.06855 13.5575 5.25551 10.7445C2.44248 7.93145 1.21826 4.59485 2.52114 3.29197L3.37898 2.43412C3.9712 1.8419 4.94703 1.85756 5.55856 2.46909L6.88728 3.79781C7.49881 4.40934 7.51447 5.38517 6.92225 5.97739L6.73799 6.16165C6.41825 6.48139 6.38696 6.99721 6.68407 7.35725C6.97064 7.70452 7.2796 8.05043 7.61458 8.38542C7.94957 8.7204 8.29548 9.02936 8.64275 9.31593C9.00279 9.61304 9.51861 9.58175 9.83835 9.26201L10.0226 9.07775C10.6148 8.48553 11.5907 8.50119 12.2022 9.11272L13.5309 10.4414C14.1424 11.053 14.1581 12.0288 13.5659 12.621L12.708 13.4789Z" fill="#5F5F5F" stroke="#5F5F5F" stroke-width="1.5"/>
</svg>
