<svg width="16" height="16" viewBox="0 0 16 16" fill="none" xmlns="http://www.w3.org/2000/svg">
<path d="M8 1C11.866 1 15 4.13401 15 8C15 11.866 11.866 15 8 15C4.13401 15 1 11.866 1 8C1 4.13401 4.13401 1 8 1ZM8 4.64551C7.58579 4.64551 7.25 4.98129 7.25 5.39551V7.73242C7.25005 8.15028 7.45898 8.54065 7.80664 8.77246L9.53711 9.92676L9.60352 9.96582C9.93932 10.1435 10.3617 10.0415 10.5771 9.71875C10.7924 9.39585 10.7245 8.96643 10.4316 8.72461L10.3691 8.67871L8.75 7.59863V5.39551C8.75 4.98129 8.41421 4.64551 8 4.64551Z" fill="#5F5F5F"/>
</svg>
