<svg width="500" height="500" viewBox="0 0 500 500" fill="none" xmlns="http://www.w3.org/2000/svg">
<path d="M0 7.99999C0 3.58171 3.58172 0 8 0H492C496.418 0 500 3.58172 500 8V492C500 496.418 496.418 500 492 500H7.99999C3.58171 500 0 496.418 0 492V7.99999Z" fill="#CACACA"/>
<path d="M241.846 145.297V216H229.15L198.096 171.078H197.51V216H182.861V145.297H195.752L226.611 190.219H227.295V145.297H241.846Z" fill="white"/>
<path d="M318.506 180.648C318.506 203.744 304.199 216.977 285.498 216.977C266.65 216.977 252.393 203.646 252.393 180.648C252.393 157.553 266.65 144.32 285.498 144.32C304.199 144.32 318.506 157.553 318.506 180.648ZM267.334 180.648C267.334 195.736 274.512 203.939 285.498 203.988C296.387 203.939 303.613 195.736 303.564 180.648C303.613 165.512 296.387 157.357 285.498 157.309C274.512 157.357 267.334 165.512 267.334 180.648Z" fill="white"/>
<path d="M112.891 285.297V356H98.2422V285.297H112.891Z" fill="white"/>
<path d="M124.805 285.297H142.969L162.598 333.246H163.379L183.008 285.297H201.172V356H186.914V309.711H186.328L167.871 355.707H158.105L139.648 309.516H139.062V356H124.805V285.297Z" fill="white"/>
<path d="M224.902 356H209.082L233.594 285.297H252.441L276.855 356H261.133L255.811 339.691H230.225L224.902 356ZM233.936 328.266H252.1L243.262 301.215H242.773L233.936 328.266Z" fill="white"/>
<path d="M328.516 308.051C326.514 301.41 321.191 297.357 313.477 297.309C302.539 297.357 295.117 305.707 295.117 320.551C295.117 335.492 302.295 343.939 313.574 343.988C323.682 343.939 329.688 338.227 329.883 329.34H314.551V318.305H344.043V327.094C344.043 345.648 331.299 356.977 313.477 356.977C293.652 356.977 280.176 343.109 280.176 320.746C280.176 297.797 294.531 284.32 313.184 284.32C329.15 284.32 341.406 294.135 343.359 308.051H328.516Z" fill="white"/>
<path d="M354.785 356V285.297H402.246V297.406H369.434V314.594H399.805V326.703H369.434V343.891H402.344V356H354.785Z" fill="white"/>
</svg>
