<svg width="28" height="32" viewBox="0 0 28 32" fill="none" xmlns="http://www.w3.org/2000/svg">
<g filter="url(#filter0_d_1248_3209)">
<path d="M14 1.75C18.8251 1.75 22.75 5.62314 22.75 10.417C22.7499 13.3982 21.0115 16.3405 19.1689 18.4824C18.2364 19.5664 17.2461 20.482 16.373 21.1328C15.9374 21.4576 15.5186 21.7256 15.1406 21.916C14.7862 22.0945 14.3812 22.25 14 22.25C13.6188 22.25 13.2138 22.0945 12.8594 21.916C12.4814 21.7256 12.0626 21.4576 11.627 21.1328C10.7539 20.482 9.76357 19.5664 8.83105 18.4824C6.98855 16.3405 5.25013 13.3982 5.25 10.417C5.25 5.62314 9.17493 1.75 14 1.75ZM14 7C12.3431 7 11 8.34315 11 10C11 11.6569 12.3431 13 14 13C15.6569 13 17 11.6569 17 10C17 8.34315 15.6569 7 14 7Z" fill="white"/>
<path d="M22.75 10.417L23.75 10.417V10.417H22.75ZM19.1689 18.4824L19.927 19.1346L19.927 19.1346L19.1689 18.4824ZM16.373 21.1328L16.9707 21.9346L16.9707 21.9346L16.373 21.1328ZM15.1406 21.916L15.5904 22.8092L15.5905 22.8091L15.1406 21.916ZM12.8594 21.916L12.4095 22.8091L12.4096 22.8092L12.8594 21.916ZM11.627 21.1328L11.0293 21.9346L11.0293 21.9346L11.627 21.1328ZM8.83105 18.4824L8.07295 19.1346L8.07297 19.1346L8.83105 18.4824ZM5.25 10.417H4.25V10.417L5.25 10.417ZM14 1.75V2.75C18.2829 2.75 21.75 6.18548 21.75 10.417H22.75H23.75C23.75 5.0608 19.3672 0.75 14 0.75V1.75ZM22.75 10.417L21.75 10.417C21.7499 13.0413 20.1965 15.7545 18.4108 17.8303L19.1689 18.4824L19.927 19.1346C21.8264 16.9265 23.7499 13.7551 23.75 10.417L22.75 10.417ZM19.1689 18.4824L18.4109 17.8303C17.5217 18.8638 16.5844 19.728 15.7754 20.3311L16.373 21.1328L16.9707 21.9346C17.9078 21.236 18.9511 20.269 19.927 19.1346L19.1689 18.4824ZM16.373 21.1328L15.7754 20.3311C15.3708 20.6327 15.0022 20.8661 14.6908 21.0229L15.1406 21.916L15.5905 22.8091C16.035 22.5852 16.5039 22.2825 16.9707 21.9346L16.373 21.1328ZM15.1406 21.916L14.6908 21.0229C14.3722 21.1833 14.14 21.25 14 21.25V22.25V23.25C14.6225 23.25 15.2001 23.0057 15.5904 22.8092L15.1406 21.916ZM14 22.25V21.25C13.86 21.25 13.6278 21.1833 13.3092 21.0229L12.8594 21.916L12.4096 22.8092C12.7999 23.0057 13.3775 23.25 14 23.25V22.25ZM12.8594 21.916L13.3092 21.0229C12.9978 20.8661 12.6292 20.6327 12.2246 20.3311L11.627 21.1328L11.0293 21.9346C11.4961 22.2825 11.965 22.5852 12.4095 22.8091L12.8594 21.916ZM11.627 21.1328L12.2246 20.3311C11.4156 19.728 10.4783 18.8638 9.58914 17.8303L8.83105 18.4824L8.07297 19.1346C9.04887 20.269 10.0922 21.236 11.0293 21.9346L11.627 21.1328ZM8.83105 18.4824L9.58916 17.8303C7.80354 15.7545 6.25011 13.0413 6.25 10.417L5.25 10.417L4.25 10.417C4.25014 13.7551 6.17356 16.9265 8.07295 19.1346L8.83105 18.4824ZM5.25 10.417H6.25C6.25 6.18548 9.71711 2.75 14 2.75V1.75V0.75C8.63276 0.75 4.25 5.0608 4.25 10.417H5.25ZM14 7V6C11.7909 6 10 7.79086 10 10H11H12C12 8.89543 12.8954 8 14 8V7ZM11 10H10C10 12.2091 11.7909 14 14 14V13V12C12.8954 12 12 11.1046 12 10H11ZM14 13V14C16.2091 14 18 12.2091 18 10H17H16C16 11.1046 15.1046 12 14 12V13ZM17 10H18C18 7.79086 16.2091 6 14 6V7V8C15.1046 8 16 8.89543 16 10H17Z" fill="#F44366"/>
</g>
<defs>
<filter id="filter0_d_1248_3209" x="-2" y="0" width="32" height="32" filterUnits="userSpaceOnUse" color-interpolation-filters="sRGB">
<feFlood flood-opacity="0" result="BackgroundImageFix"/>
<feColorMatrix in="SourceAlpha" type="matrix" values="0 0 0 0 0 0 0 0 0 0 0 0 0 0 0 0 0 0 127 0" result="hardAlpha"/>
<feOffset dy="4"/>
<feGaussianBlur stdDeviation="2"/>
<feComposite in2="hardAlpha" operator="out"/>
<feColorMatrix type="matrix" values="0 0 0 0 0.956863 0 0 0 0 0.262745 0 0 0 0 0.4 0 0 0 0.2 0"/>
<feBlend mode="normal" in2="BackgroundImageFix" result="effect1_dropShadow_1248_3209"/>
<feBlend mode="normal" in="SourceGraphic" in2="effect1_dropShadow_1248_3209" result="shape"/>
</filter>
</defs>
</svg>
