<svg width="15" height="14" viewBox="0 0 15 14" fill="none" xmlns="http://www.w3.org/2000/svg">
<path d="M6.94429 0.870651C7.01371 0.709458 7.24225 0.709458 7.31167 0.87065L8.97368 4.72999C9.00263 4.79723 9.06601 4.84327 9.1389 4.85003L13.3229 5.23809C13.4977 5.2543 13.5683 5.47166 13.4365 5.58749L10.2796 8.36076C10.2246 8.40907 10.2004 8.48357 10.2165 8.55499L11.1404 12.6542C11.179 12.8254 10.9941 12.9597 10.8431 12.8701L7.23009 10.7247C7.16715 10.6874 7.08881 10.6874 7.02587 10.7247L3.41281 12.8701C3.26191 12.9597 3.07701 12.8254 3.11559 12.6542L4.03947 8.55499C4.05556 8.48357 4.03136 8.40907 3.97636 8.36076L0.819493 5.58749C0.68764 5.47166 0.758266 5.2543 0.93302 5.23809L5.11706 4.85003C5.18995 4.84327 5.25333 4.79723 5.28228 4.72999L6.94429 0.870651Z" fill="#FFD119"/>
<path d="M6.32616 0.439311C6.69223 -0.146435 7.5636 -0.146439 7.92967 0.439311L7.99999 0.574077L9.53221 4.13267L13.3926 4.49107C14.2223 4.56834 14.5578 5.60111 13.9316 6.15123L11.0195 8.70884L11.8721 12.4891C12.0553 13.3024 11.1767 13.9411 10.4599 13.5155L7.12792 11.537L3.79588 13.5155C3.07909 13.9411 2.20049 13.3024 2.38377 12.4891L3.23534 8.70884L0.324205 6.15123C-0.301937 5.60111 0.0334864 4.56834 0.863267 4.49107L4.72264 4.13267L6.25585 0.574077L6.32616 0.439311ZM5.97069 5.0272C5.83309 5.34619 5.53244 5.56435 5.18651 5.59654L2.27342 5.86705L4.47167 7.79771C4.73252 8.02711 4.84768 8.38067 4.77147 8.71958L4.12792 11.5731L6.64256 10.0799L6.7578 10.0213C6.99413 9.92138 7.2617 9.92139 7.49803 10.0213L7.61327 10.0799L10.1269 11.5731L9.48436 8.71958C9.40815 8.38067 9.52331 8.02711 9.78417 7.79771L11.9814 5.86705L9.06932 5.59654C8.72339 5.56435 8.42274 5.34619 8.28514 5.0272L7.12792 2.3397L5.97069 5.0272Z" fill="#FFD119"/>
</svg>
