<svg width="19" height="18" viewBox="0 0 19 18" fill="none" xmlns="http://www.w3.org/2000/svg">
<path d="M2.5 6.4C2.16863 6.4 1.9 6.66863 1.9 7C1.9 7.33137 2.16863 7.6 2.5 7.6V6.4ZM16.5 7.6C16.8314 7.6 17.1 7.33137 17.1 7C17.1 6.66863 16.8314 6.4 16.5 6.4V7.6ZM2.58398 10.8999C2.25261 10.8999 1.98398 11.1685 1.98398 11.4999C1.98398 11.8313 2.25261 12.0999 2.58398 12.0999V10.8999ZM16.584 12.0999C16.9154 12.0999 17.184 11.8313 17.184 11.4999C17.184 11.1685 16.9154 10.8999 16.584 10.8999V12.0999ZM17.5 9H16.9C16.9 13.0869 13.5869 16.4 9.5 16.4V17V17.6C14.2497 17.6 18.1 13.7497 18.1 9H17.5ZM9.5 17V16.4C5.41309 16.4 2.1 13.0869 2.1 9H1.5H0.9C0.9 13.7497 4.75035 17.6 9.5 17.6V17ZM1.5 9H2.1C2.1 4.91309 5.41309 1.6 9.5 1.6V1V0.4C4.75035 0.4 0.9 4.25035 0.9 9H1.5ZM9.5 1V1.6C13.5869 1.6 16.9 4.91309 16.9 9H17.5H18.1C18.1 4.25035 14.2497 0.4 9.5 0.4V1ZM9.5 17V16.4C9.21527 16.4 8.89672 16.2706 8.55468 15.94C8.20975 15.6065 7.87172 15.095 7.57482 14.4164C6.98181 13.0609 6.6 11.1464 6.6 9H6H5.4C5.4 11.2719 5.80169 13.3574 6.47543 14.8973C6.81191 15.6664 7.22806 16.3265 7.7206 16.8027C8.21603 17.2817 8.81823 17.6 9.5 17.6V17ZM6 9H6.6C6.6 6.8536 6.98181 4.93909 7.57482 3.58364C7.87172 2.90502 8.20975 2.39352 8.55468 2.06005C8.89672 1.72937 9.21527 1.6 9.5 1.6V1V0.4C8.81823 0.4 8.21603 0.718343 7.7206 1.19731C7.22806 1.67349 6.81191 2.33356 6.47543 3.10265C5.80169 4.64263 5.4 6.72812 5.4 9H6ZM9.5 17V17.6C10.1818 17.6 10.784 17.2817 11.2794 16.8027C11.7719 16.3265 12.1881 15.6664 12.5246 14.8973C13.1983 13.3574 13.6 11.2719 13.6 9H13H12.4C12.4 11.1464 12.0182 13.0609 11.4252 14.4164C11.1283 15.095 10.7902 15.6065 10.4453 15.94C10.1033 16.2706 9.78473 16.4 9.5 16.4V17ZM13 9H13.6C13.6 6.72812 13.1983 4.64263 12.5246 3.10265C12.1881 2.33356 11.7719 1.67349 11.2794 1.19731C10.784 0.718343 10.1818 0.4 9.5 0.4V1V1.6C9.78473 1.6 10.1033 1.72937 10.4453 2.06005C10.7902 2.39352 11.1283 2.90502 11.4252 3.58364C12.0182 4.93909 12.4 6.8536 12.4 9H13ZM2.5 7V7.6H16.5V7V6.4H2.5V7ZM2.58398 11.4999V12.0999H16.584V11.4999V10.8999H2.58398V11.4999Z" fill="white"/>
</svg>
