<svg width="24" height="24" viewBox="0 0 24 24" fill="none" xmlns="http://www.w3.org/2000/svg">
<path fill-rule="evenodd" clip-rule="evenodd" d="M14.0443 4.33605C14.8248 3.55442 16.0906 3.55394 16.8717 4.33498L19.3635 6.82684C20.1379 7.60122 20.146 8.85487 19.3816 9.63914L17.7216 11.3422L12.3812 6.00174L14.0443 4.33605ZM11.3213 7.0632L16.6746 12.4165L10.1484 19.1124C9.58402 19.6915 8.80989 20.018 8.00154 20.018L5.24939 20.0179C4.39656 20.0178 3.71549 19.3069 3.75135 18.4542L3.86951 15.6452C3.90111 14.8939 4.21333 14.1819 4.7444 13.6501L11.3213 7.0632ZM14.3161 20.6913L14.3932 20.6952H20.5149C20.929 20.6952 21.2646 20.3593 21.2646 19.9449C21.2646 19.5305 20.929 19.1946 20.5149 19.1946H14.3932L14.3161 19.1985C13.9383 19.2372 13.6435 19.5566 13.6435 19.9449C13.6435 20.3332 13.9383 20.6527 14.3161 20.6913Z" fill="white"/>
</svg>
