<svg width="24" height="24" viewBox="0 0 24 24" fill="none" xmlns="http://www.w3.org/2000/svg">
<path d="M18.2774 19.3051C16.5402 21.0423 12.0914 19.41 8.34069 15.6593C4.58998 11.9086 2.95768 7.4598 4.69485 5.72262L5.83864 4.57883C6.62826 3.78921 7.92937 3.81008 8.74474 4.62545L10.5164 6.39708C11.3318 7.21246 11.3526 8.51356 10.563 9.30319L10.3173 9.54886C9.891 9.97519 9.84929 10.6629 10.2454 11.143C10.6275 11.606 11.0395 12.0672 11.4861 12.5139C11.9328 12.9605 12.394 13.3725 12.857 13.7546C13.3371 14.1507 14.0248 14.109 14.4511 13.6827L14.6968 13.437C15.4864 12.6474 16.7875 12.6682 17.6029 13.4836L19.3745 15.2553C20.1899 16.0706 20.2108 17.3717 19.4212 18.1614L18.2774 19.3051Z" fill="#5F5F5F" stroke="#5F5F5F" stroke-width="1.5"/>
</svg>
